<?xml version="1.0" encoding="utf-8"?>
<!-- Generator: Adobe Illustrator 28.2.0, SVG Export Plug-In . SVG Version: 6.00 Build 0)  -->
<svg version="1.1" xmlns="http://www.w3.org/2000/svg" xmlns:xlink="http://www.w3.org/1999/xlink" x="0px" y="0px"
	 viewBox="0 0 1925 611" style="enable-background:new 0 0 1925 611;" xml:space="preserve">
<style type="text/css">
	.st0{opacity:0.1;clip-path:url(#SVGID_00000181785812427604738960000003135218986731871644_);}
	.st1{fill:#EF3E42;}
	.st2{fill:#D8D9DA;}
	.st3{fill:#00447C;}
</style>
<g id="Layer_1">
</g>
<g id="Logo">
	<g>
		<defs>
			<rect id="SVGID_1_" width="1925" height="611"/>
		</defs>
		<clipPath id="SVGID_00000164496498211750221010000010533026568992085910_">
			<use xlink:href="#SVGID_1_"  style="overflow:visible;"/>
		</clipPath>
		<g style="opacity:0.1;clip-path:url(#SVGID_00000164496498211750221010000010533026568992085910_);">
			<path class="st1" d="M-131.1,427L-131.1,427c-24.5,11.4-41.6,36.1-41.6,65c0,39.7,32.1,71.8,71.8,71.8
				c39.7,0,71.8-32.1,71.8-71.8c0-16.8-6-32-15.7-44.2c94.5,41.7,169.2,132.3,284.7,135c81,1.9,162.4-31.9,230.1-74.2
				C225.7,555.2,98.8,284.3-131.1,427z"/>
			<path class="st2" d="M432.9,241.4C246.4,229.1,68.4,274.2-71.8,375c-7.8,0.4-5.9,9.5,7.4,7.4C272.3,186,659.1,521,1034,516
				c128.6-1.7,254.9-42.5,348.8-126.2C1057.6,459,763.1,263.3,432.9,241.4z"/>
			<path class="st3" d="M2228.7,196.9c-422.2,45.5-816.3-199.7-1268.9-230C547.4-60.8,152.9,97.3,2.6,308.3
				c484.4-492.4,1351.2,55.4,2011.1,7.4c204.9-14.9,409.4-95.7,475-259.7C2428.2,116,2347.4,184.1,2228.7,196.9z"/>
		</g>
	</g>
</g>
</svg>
